<svg data-v-5f19e91b="" xmlns="http://www.w3.org/2000/svg" width="591" height="33" viewBox="0 0 591 33"><!----> <!----> <!----> <g data-v-5f19e91b="" id="9d7b2f54-b86a-494f-20ed-22b49d77dd0b" fill="black" transform="matrix(5.439709543503888,0,0,5.439709543503888,66.0283444917797,-21.60045710850911)"><path d="M5.07 4.61L5.07 4.61Q6.03 4.61 6.80 5.03L6.80 5.03L6.80 5.03Q7.57 5.45 8.01 6.25L8.01 6.25L8.01 6.25Q8.44 7.06 8.44 8.19L8.44 8.19L8.44 11.63L8.44 11.63Q8.44 11.94 8.24 12.14L8.24 12.14L8.24 12.14Q8.04 12.35 7.73 12.35L7.73 12.35L7.73 12.35Q7.42 12.35 7.22 12.14L7.22 12.14L7.22 12.14Q7.01 11.94 7.01 11.63L7.01 11.63L7.01 8.19L7.01 8.19Q7.01 7.06 6.41 6.47L6.41 6.47L6.41 6.47Q5.80 5.89 4.79 5.89L4.79 5.89L4.79 5.89Q4.20 5.89 3.72 6.13L3.72 6.13L3.72 6.13Q3.23 6.37 2.96 6.78L2.96 6.78L2.96 6.78Q2.69 7.18 2.69 7.69L2.69 7.69L2.69 11.63L2.69 11.63Q2.69 11.94 2.49 12.14L2.49 12.14L2.49 12.14Q2.30 12.35 1.97 12.35L1.97 12.35L1.97 12.35Q1.67 12.35 1.46 12.14L1.46 12.14L1.46 12.14Q1.26 11.94 1.26 11.63L1.26 11.63L1.26 2.11L1.26 2.11Q1.26 1.79 1.46 1.60L1.46 1.60L1.46 1.60Q1.67 1.40 1.97 1.40L1.97 1.40L1.97 1.40Q2.30 1.40 2.49 1.60L2.49 1.60L2.49 1.60Q2.69 1.79 2.69 2.11L2.69 2.11L2.69 5.54L2.69 5.54Q3.14 5.10 3.75 4.85L3.75 4.85L3.75 4.85Q4.37 4.61 5.07 4.61L5.07 4.61ZM14.29 4.62L14.29 4.62Q15.37 4.62 16.25 5.13L16.25 5.13L16.25 5.13Q17.12 5.64 17.63 6.53L17.63 6.53L17.63 6.53Q18.14 7.42 18.14 8.51L18.14 8.51L18.14 11.63L18.14 11.63Q18.14 11.94 17.94 12.14L17.94 12.14L17.94 12.14Q17.74 12.35 17.43 12.35L17.43 12.35L17.43 12.35Q17.12 12.35 16.92 12.14L16.92 12.14L16.92 12.14Q16.72 11.94 16.72 11.63L16.72 11.63L16.72 11.12L16.72 11.12Q16.23 11.72 15.53 12.05L15.53 12.05L15.53 12.05Q14.83 12.39 14.01 12.39L14.01 12.39L14.01 12.39Q13.01 12.39 12.19 11.89L12.19 11.89L12.19 11.89Q11.37 11.38 10.90 10.49L10.90 10.49L10.90 10.49Q10.43 9.60 10.43 8.51L10.43 8.51L10.43 8.51Q10.43 7.42 10.93 6.53L10.93 6.53L10.93 6.53Q11.44 5.64 12.33 5.13L12.33 5.13L12.33 5.13Q13.22 4.62 14.29 4.62L14.29 4.62ZM14.29 11.13L14.29 11.13Q14.99 11.13 15.56 10.79L15.56 10.79L15.56 10.79Q16.13 10.44 16.45 9.85L16.45 9.85L16.45 9.85Q16.77 9.25 16.77 8.51L16.77 8.51L16.77 8.51Q16.77 7.77 16.45 7.17L16.45 7.17L16.45 7.17Q16.13 6.57 15.56 6.22L15.56 6.22L15.56 6.22Q14.99 5.88 14.29 5.88L14.29 5.88L14.29 5.88Q13.59 5.88 13.03 6.22L13.03 6.22L13.03 6.22Q12.46 6.57 12.13 7.17L12.13 7.17L12.13 7.17Q11.80 7.77 11.80 8.51L11.80 8.51L11.80 8.51Q11.80 9.25 12.13 9.85L12.13 9.85L12.13 9.85Q12.46 10.44 13.03 10.79L13.03 10.79L13.03 10.79Q13.59 11.13 14.29 11.13L14.29 11.13ZM20.99 1.40L20.99 1.40Q20.66 1.40 20.47 1.60L20.47 1.60L20.47 1.60Q20.27 1.79 20.27 2.11L20.27 2.11L20.27 8.50L20.27 8.50Q20.27 9.59 20.78 10.48L20.78 10.48L20.78 10.48Q21.29 11.37 22.17 11.88L22.17 11.88L22.17 11.88Q23.04 12.39 24.12 12.39L24.12 12.39L24.12 12.39Q25.20 12.39 26.09 11.88L26.09 11.88L26.09 11.88Q26.98 11.37 27.48 10.48L27.48 10.48L27.48 10.48Q27.99 9.59 27.99 8.50L27.99 8.50L27.99 8.50Q27.99 7.41 27.52 6.52L27.52 6.52L27.52 6.52Q27.05 5.63 26.23 5.12L26.23 5.12L26.23 5.12Q25.41 4.62 24.40 4.62L24.40 4.62L24.40 4.62Q23.59 4.62 22.89 4.96L22.89 4.96L22.89 4.96Q22.19 5.29 21.70 5.89L21.70 5.89L21.70 2.11L21.70 2.11Q21.70 1.79 21.50 1.60L21.50 1.60L21.50 1.60Q21.29 1.40 20.99 1.40L20.99 1.40ZM24.12 11.13L24.12 11.13Q23.42 11.13 22.86 10.79L22.86 10.79L22.86 10.79Q22.29 10.44 21.97 9.84L21.97 9.84L21.97 9.84Q21.64 9.24 21.64 8.50L21.64 8.50L21.64 8.50Q21.64 7.76 21.97 7.16L21.97 7.16L21.97 7.16Q22.29 6.57 22.86 6.22L22.86 6.22L22.86 6.22Q23.42 5.88 24.12 5.88L24.12 5.88L24.12 5.88Q24.82 5.88 25.39 6.22L25.39 6.22L25.39 6.22Q25.96 6.57 26.29 7.16L26.29 7.16L26.29 7.16Q26.61 7.76 26.61 8.50L26.61 8.50L26.61 8.50Q26.61 9.24 26.29 9.84L26.29 9.84L26.29 9.84Q25.96 10.44 25.39 10.79L25.39 10.79L25.39 10.79Q24.82 11.13 24.12 11.13L24.12 11.13ZM30.25 5.39L30.25 5.39Q30.25 5.07 30.46 4.87L30.46 4.87L30.46 4.87Q30.66 4.68 30.97 4.68L30.97 4.68L30.97 4.68Q31.29 4.68 31.49 4.87L31.49 4.87L31.49 4.87Q31.68 5.07 31.68 5.39L31.68 5.39L31.68 11.62L31.68 11.62Q31.68 11.93 31.49 12.13L31.49 12.13L31.49 12.13Q31.29 12.33 30.97 12.33L30.97 12.33L30.97 12.33Q30.66 12.33 30.46 12.13L30.46 12.13L30.46 12.13Q30.25 11.93 30.25 11.62L30.25 11.62L30.25 5.39ZM30.97 1.58L30.97 1.58Q31.35 1.58 31.62 1.85L31.62 1.85L31.62 1.85Q31.89 2.13 31.89 2.51L31.89 2.51L31.89 2.51Q31.89 2.88 31.62 3.16L31.62 3.16L31.62 3.16Q31.35 3.43 30.97 3.43L30.97 3.43L30.97 3.43Q30.59 3.43 30.32 3.16L30.32 3.16L30.32 3.16Q30.04 2.88 30.04 2.51L30.04 2.51L30.04 2.51Q30.04 2.13 30.32 1.85L30.32 1.85L30.32 1.85Q30.59 1.58 30.97 1.58L30.97 1.58ZM37.60 10.93L37.60 10.93Q37.86 10.93 38.03 11.13L38.03 11.13L38.03 11.13Q38.21 11.33 38.21 11.63L38.21 11.63L38.21 11.63Q38.21 11.94 37.98 12.14L37.98 12.14L37.98 12.14Q37.74 12.33 37.38 12.33L37.38 12.33L37.13 12.33L37.13 12.33Q36.44 12.33 35.88 11.98L35.88 11.98L35.88 11.98Q35.31 11.62 34.99 11.00L34.99 11.00L34.99 11.00Q34.66 10.39 34.66 9.62L34.66 9.62L34.66 6.16L34.02 6.16L34.02 6.16Q33.73 6.16 33.54 5.99L33.54 5.99L33.54 5.99Q33.36 5.82 33.36 5.57L33.36 5.57L33.36 5.57Q33.36 5.29 33.54 5.12L33.54 5.12L33.54 5.12Q33.73 4.96 34.02 4.96L34.02 4.96L34.66 4.96L34.66 2.94L34.66 2.94Q34.66 2.63 34.86 2.44L34.86 2.44L34.86 2.44Q35.06 2.24 35.36 2.24L35.36 2.24L35.36 2.24Q35.67 2.24 35.87 2.44L35.87 2.44L35.87 2.44Q36.06 2.63 36.06 2.94L36.06 2.94L36.06 4.96L37.25 4.96L37.25 4.96Q37.55 4.96 37.73 5.12L37.73 5.12L37.73 5.12Q37.91 5.29 37.91 5.57L37.91 5.57L37.91 5.57Q37.91 5.82 37.73 5.99L37.73 5.99L37.73 5.99Q37.55 6.16 37.25 6.16L37.25 6.16L36.06 6.16L36.06 9.62L36.06 9.62Q36.06 10.18 36.37 10.56L36.37 10.56L36.37 10.56Q36.68 10.93 37.13 10.93L37.13 10.93L37.60 10.93ZM47.32 10.93L47.32 10.93Q47.57 10.93 47.75 11.13L47.75 11.13L47.75 11.13Q47.92 11.33 47.92 11.63L47.92 11.63L47.92 11.63Q47.92 11.94 47.69 12.14L47.69 12.14L47.69 12.14Q47.46 12.33 47.10 12.33L47.10 12.33L46.84 12.33L46.84 12.33Q46.16 12.33 45.59 11.98L45.59 11.98L45.59 11.98Q45.02 11.62 44.70 11.00L44.70 11.00L44.70 11.00Q44.38 10.39 44.38 9.62L44.38 9.62L44.38 6.16L43.74 6.16L43.74 6.16Q43.44 6.16 43.26 5.99L43.26 5.99L43.26 5.99Q43.08 5.82 43.08 5.57L43.08 5.57L43.08 5.57Q43.08 5.29 43.26 5.12L43.26 5.12L43.26 5.12Q43.44 4.96 43.74 4.96L43.74 4.96L44.38 4.96L44.38 2.94L44.38 2.94Q44.38 2.63 44.58 2.44L44.58 2.44L44.58 2.44Q44.77 2.24 45.08 2.24L45.08 2.24L45.08 2.24Q45.39 2.24 45.58 2.44L45.58 2.44L45.58 2.44Q45.78 2.63 45.78 2.94L45.78 2.94L45.78 4.96L46.97 4.96L46.97 4.96Q47.26 4.96 47.45 5.12L47.45 5.12L47.45 5.12Q47.63 5.29 47.63 5.57L47.63 5.57L47.63 5.57Q47.63 5.82 47.45 5.99L47.45 5.99L47.45 5.99Q47.26 6.16 46.97 6.16L46.97 6.16L45.78 6.16L45.78 9.62L45.78 9.62Q45.78 10.18 46.09 10.56L46.09 10.56L46.09 10.56Q46.40 10.93 46.84 10.93L46.84 10.93L47.32 10.93ZM53.42 4.59L53.42 4.59Q54.17 4.59 54.59 4.82L54.59 4.82L54.59 4.82Q55.01 5.04 55.01 5.38L55.01 5.38L55.01 5.38Q55.01 5.47 54.99 5.52L54.99 5.52L54.99 5.52Q54.87 5.96 54.43 5.96L54.43 5.96L54.43 5.96Q54.36 5.96 54.22 5.94L54.22 5.94L54.22 5.94Q53.66 5.84 53.31 5.84L53.31 5.84L53.31 5.84Q52.30 5.84 51.69 6.30L51.69 6.30L51.69 6.30Q51.07 6.76 51.07 7.55L51.07 7.55L51.07 11.63L51.07 11.63Q51.07 11.97 50.90 12.15L50.90 12.15L50.90 12.15Q50.72 12.33 50.37 12.33L50.37 12.33L50.37 12.33Q50.04 12.33 49.85 12.16L49.85 12.16L49.85 12.16Q49.67 11.98 49.67 11.63L49.67 11.63L49.67 5.38L49.67 5.38Q49.67 5.04 49.85 4.86L49.85 4.86L49.85 4.86Q50.04 4.68 50.37 4.68L50.37 4.68L50.37 4.68Q51.07 4.68 51.07 5.38L51.07 5.38L51.07 5.64L51.07 5.64Q51.49 5.15 52.11 4.87L52.11 4.87L52.11 4.87Q52.72 4.59 53.42 4.59L53.42 4.59ZM59.95 4.62L59.95 4.62Q61.03 4.62 61.90 5.13L61.90 5.13L61.90 5.13Q62.78 5.64 63.29 6.53L63.29 6.53L63.29 6.53Q63.80 7.42 63.80 8.51L63.80 8.51L63.80 11.63L63.80 11.63Q63.80 11.94 63.59 12.14L63.59 12.14L63.59 12.14Q63.39 12.35 63.08 12.35L63.08 12.35L63.08 12.35Q62.78 12.35 62.57 12.14L62.57 12.14L62.57 12.14Q62.37 11.94 62.37 11.63L62.37 11.63L62.37 11.12L62.37 11.12Q61.88 11.72 61.18 12.05L61.18 12.05L61.18 12.05Q60.48 12.39 59.67 12.39L59.67 12.39L59.67 12.39Q58.66 12.39 57.84 11.89L57.84 11.89L57.84 11.89Q57.02 11.38 56.55 10.49L56.55 10.49L56.55 10.49Q56.08 9.60 56.08 8.51L56.08 8.51L56.08 8.51Q56.08 7.42 56.59 6.53L56.59 6.53L56.59 6.53Q57.09 5.64 57.98 5.13L57.98 5.13L57.98 5.13Q58.87 4.62 59.95 4.62L59.95 4.62ZM59.95 11.13L59.95 11.13Q60.65 11.13 61.22 10.79L61.22 10.79L61.22 10.79Q61.78 10.44 62.10 9.85L62.10 9.85L62.10 9.85Q62.43 9.25 62.43 8.51L62.43 8.51L62.43 8.51Q62.43 7.77 62.10 7.17L62.10 7.17L62.10 7.17Q61.78 6.57 61.22 6.22L61.22 6.22L61.22 6.22Q60.65 5.88 59.95 5.88L59.95 5.88L59.95 5.88Q59.25 5.88 58.68 6.22L58.68 6.22L58.68 6.22Q58.11 6.57 57.79 7.17L57.79 7.17L57.79 7.17Q57.46 7.77 57.46 8.51L57.46 8.51L57.46 8.51Q57.46 9.25 57.79 9.85L57.79 9.85L57.79 9.85Q58.11 10.44 58.68 10.79L58.68 10.79L58.68 10.79Q59.25 11.13 59.95 11.13L59.95 11.13ZM69.33 4.62L69.33 4.62Q70.98 4.62 72.07 5.88L72.07 5.88L72.07 5.88Q72.21 6.03 72.21 6.24L72.21 6.24L72.21 6.24Q72.21 6.55 71.90 6.76L71.90 6.76L71.90 6.76Q71.76 6.86 71.58 6.86L71.58 6.86L71.58 6.86Q71.26 6.86 71.04 6.61L71.04 6.61L71.04 6.61Q70.69 6.23 70.27 6.05L70.27 6.05L70.27 6.05Q69.86 5.88 69.33 5.88L69.33 5.88L69.33 5.88Q68.25 5.88 67.58 6.60L67.58 6.60L67.58 6.60Q66.91 7.32 66.91 8.51L66.91 8.51L66.91 8.51Q66.91 9.27 67.22 9.86L67.22 9.86L67.22 9.86Q67.54 10.46 68.10 10.79L68.10 10.79L68.10 10.79Q68.67 11.13 69.40 11.13L69.40 11.13L69.40 11.13Q70.35 11.13 70.94 10.64L70.94 10.64L70.94 10.64Q71.20 10.44 71.46 10.44L71.46 10.44L71.46 10.44Q71.65 10.44 71.82 10.57L71.82 10.57L71.82 10.57Q72.09 10.79 72.09 11.07L72.09 11.07L72.09 11.07Q72.09 11.28 71.92 11.45L71.92 11.45L71.92 11.45Q70.91 12.39 69.40 12.39L69.40 12.39L69.40 12.39Q68.29 12.39 67.41 11.89L67.41 11.89L67.41 11.89Q66.53 11.38 66.03 10.49L66.03 10.49L66.03 10.49Q65.53 9.60 65.53 8.51L65.53 8.51L65.53 8.51Q65.53 7.39 66.02 6.50L66.02 6.50L66.02 6.50Q66.50 5.61 67.37 5.12L67.37 5.12L67.37 5.12Q68.24 4.62 69.33 4.62L69.33 4.62ZM80.12 11.33L80.12 11.33Q80.28 11.49 80.28 11.75L80.28 11.75L80.28 11.75Q80.28 12.05 80.02 12.26L80.02 12.26L80.02 12.26Q79.81 12.43 79.58 12.43L79.58 12.43L79.58 12.43Q79.27 12.43 79.07 12.18L79.07 12.18L76.41 8.89L75.71 9.51L75.71 11.65L75.71 11.65Q75.71 11.96 75.52 12.14L75.52 12.14L75.52 12.14Q75.33 12.33 75.03 12.33L75.03 12.33L75.03 12.33Q74.72 12.33 74.53 12.14L74.53 12.14L74.53 12.14Q74.34 11.96 74.34 11.65L74.34 11.65L74.34 2.09L74.34 2.09Q74.34 1.78 74.53 1.59L74.53 1.59L74.53 1.59Q74.72 1.40 75.03 1.40L75.03 1.40L75.03 1.40Q75.33 1.40 75.52 1.59L75.52 1.59L75.52 1.59Q75.71 1.78 75.71 2.09L75.71 2.09L75.71 7.78L79.11 4.75L79.11 4.75Q79.30 4.56 79.55 4.56L79.55 4.56L79.55 4.56Q79.84 4.56 80.02 4.79L80.02 4.79L80.02 4.79Q80.21 4.97 80.21 5.22L80.21 5.22L80.21 5.22Q80.21 5.52 79.98 5.70L79.98 5.70L77.41 7.99L80.12 11.33ZM89.18 8.39L89.18 8.39Q89.18 8.65 89.00 8.83L89.00 8.83L89.00 8.83Q88.82 9.00 88.54 9.00L88.54 9.00L83.22 9.00L83.22 9.00Q83.37 9.98 84.10 10.58L84.10 10.58L84.10 10.58Q84.84 11.19 85.90 11.19L85.90 11.19L85.90 11.19Q86.32 11.19 86.78 11.03L86.78 11.03L86.78 11.03Q87.23 10.88 87.53 10.65L87.53 10.65L87.53 10.65Q87.72 10.50 87.99 10.50L87.99 10.50L87.99 10.50Q88.26 10.50 88.41 10.64L88.41 10.64L88.41 10.64Q88.66 10.85 88.66 11.12L88.66 11.12L88.66 11.12Q88.66 11.37 88.44 11.54L88.44 11.54L88.44 11.54Q87.96 11.91 87.25 12.15L87.25 12.15L87.25 12.15Q86.55 12.39 85.90 12.39L85.90 12.39L85.90 12.39Q84.76 12.39 83.85 11.89L83.85 11.89L83.85 11.89Q82.94 11.40 82.42 10.51L82.42 10.51L82.42 10.51Q81.91 9.63 81.91 8.51L81.91 8.51L81.91 8.51Q81.91 7.39 82.40 6.50L82.40 6.50L82.40 6.50Q82.88 5.61 83.74 5.12L83.74 5.12L83.74 5.12Q84.60 4.62 85.69 4.62L85.69 4.62L85.69 4.62Q86.77 4.62 87.56 5.10L87.56 5.10L87.56 5.10Q88.34 5.57 88.76 6.43L88.76 6.43L88.76 6.43Q89.18 7.28 89.18 8.39L89.18 8.39ZM85.69 5.82L85.69 5.82Q84.67 5.82 84.03 6.38L84.03 6.38L84.03 6.38Q83.40 6.94 83.23 7.88L83.23 7.88L87.89 7.88L87.89 7.88Q87.77 6.94 87.19 6.38L87.19 6.38L87.19 6.38Q86.62 5.82 85.69 5.82L85.69 5.82ZM94.75 4.59L94.75 4.59Q95.49 4.59 95.91 4.82L95.91 4.82L95.91 4.82Q96.33 5.04 96.33 5.38L96.33 5.38L96.33 5.38Q96.33 5.47 96.32 5.52L96.32 5.52L96.32 5.52Q96.19 5.96 95.76 5.96L95.76 5.96L95.76 5.96Q95.69 5.96 95.55 5.94L95.55 5.94L95.55 5.94Q94.99 5.84 94.64 5.84L94.64 5.84L94.64 5.84Q93.63 5.84 93.02 6.30L93.02 6.30L93.02 6.30Q92.40 6.76 92.40 7.55L92.40 7.55L92.40 11.63L92.40 11.63Q92.40 11.97 92.22 12.15L92.22 12.15L92.22 12.15Q92.05 12.33 91.70 12.33L91.70 12.33L91.70 12.33Q91.36 12.33 91.18 12.16L91.18 12.16L91.18 12.16Q91 11.98 91 11.63L91 11.63L91 5.38L91 5.38Q91 5.04 91.18 4.86L91.18 4.86L91.18 4.86Q91.36 4.68 91.70 4.68L91.70 4.68L91.70 4.68Q92.40 4.68 92.40 5.38L92.40 5.38L92.40 5.64L92.40 5.64Q92.82 5.15 93.44 4.87L93.44 4.87L93.44 4.87Q94.05 4.59 94.75 4.59L94.75 4.59Z"></path></g> <!----> <g data-v-5f19e91b="" id="0ad4dea1-a0c9-14e5-2ce4-618d522eed66" transform="matrix(0.5965667724609375,0,0,0.5965667724609375,-3.150690688537722,-13.673639469518093)" stroke="none" fill="black"><path d="M5.833 37.065S1.672 70.26 36.4 70.26c0 0 8.655-33.195-30.567-33.195zM94.074 23.155c-47.241 0-51.611 29.712-50.744 44.967 7.981-23.02 29.738-28.101 29.738-28.101-20.77 12.557-25.03 35.225-25.307 36.825 52.753-2.036 46.313-53.691 46.313-53.691z"></path></g></svg>